<?xml version="1.0" encoding="UTF-8"?>
<!DOCTYPE svg>
<svg width="492pt" height="404pt"
 viewBox="0.00 0.00 491.50 404.00" xmlns="http://www.w3.org/2000/svg" xmlns:xlink="http://www.w3.org/1999/xlink">
<g id="graph0" class="graph" transform="scale(1 1) rotate(0) translate(4 400)">
<title>G</title><style>.edge>path:hover{stroke-width:8}</style>
<polygon fill="#ccc" stroke="transparent" points="-4,4 -4,-400 487.5,-400 487.5,4 -4,4"/>
<!-- MeasureHeight -->
<g id="node1" class="node">
<title>MeasureHeight</title><style>.edge>path:hover{stroke-width:8}</style>
<ellipse fill="#4981ac" stroke="#000000" cx="233" cy="-18" rx="54.3144" ry="18"/>
<text text-anchor="middle" x="233" y="-15.5" font-family="Helvetica,sans-Serif" font-size="10.00" fill="#ffffff">MeasureHeight</text>
</g>
<!-- Angle -->
<g id="node2" class="node">
<title>Angle</title><style>.edge>path:hover{stroke-width:8}</style>
<ellipse fill="#b65353" stroke="#000000" cx="27" cy="-234" rx="27" ry="18"/>
<text text-anchor="middle" x="27" y="-231.5" font-family="Helvetica,sans-Serif" font-size="10.00" fill="#ffffff">Angle</text>
</g>
<!-- Calculate -->
<g id="node3" class="node">
<title>Calculate</title><style>.edge>path:hover{stroke-width:8}</style>
<ellipse fill="#a46f46" stroke="#000000" cx="82" cy="-162" rx="34.2855" ry="18"/>
<text text-anchor="middle" x="82" y="-159.5" font-family="Helvetica,sans-Serif" font-size="10.00" fill="#ffffff">Calculate</text>
</g>
<!-- Angle - Calculate -->
<g id="edge1" class="edge">
<title>Angle&#45;&gt;Calculate</title><style>.edge>path:hover{stroke-width:8}</style>
<path fill="none" stroke="#000000" d="M39.4804,-217.6621C46.4134,-208.5861 55.1837,-197.1049 62.9558,-186.9306"/>
<polygon fill="#b65353" stroke="#000000" points="65.8983,-188.8443 69.1874,-178.7729 60.3356,-184.595 65.8983,-188.8443"/>
</g>
<!-- CalculateMultiple -->
<g id="node4" class="node">
<title>CalculateMultiple</title><style>.edge>path:hover{stroke-width:8}</style>
<ellipse fill="#ac9d49" stroke="#000000" cx="161" cy="-90" rx="58.0561" ry="18"/>
<text text-anchor="middle" x="161" y="-87.5" font-family="Helvetica,sans-Serif" font-size="10.00" fill="#000000">CalculateMultiple</text>
</g>
<!-- Calculate - CalculateMultiple -->
<g id="edge2" class="edge">
<title>Calculate&#45;&gt;CalculateMultiple</title><style>.edge>path:hover{stroke-width:8}</style>
<path fill="none" stroke="#000000" d="M99.1418,-146.3771C109.565,-136.8774 123.0853,-124.5552 134.8262,-113.8546"/>
<polygon fill="#a46f46" stroke="#000000" points="137.201,-116.4258 142.2343,-107.1029 132.4857,-111.2522 137.201,-116.4258"/>
</g>
<!-- CalculateMultiple - MeasureHeight -->
<g id="edge3" class="edge">
<title>CalculateMultiple&#45;&gt;MeasureHeight</title><style>.edge>path:hover{stroke-width:8}</style>
<path fill="none" stroke="#000000" d="M178.4292,-72.5708C187.45,-63.55 198.613,-52.387 208.4879,-42.5121"/>
<polygon fill="#ac9d49" stroke="#000000" points="211.1351,-44.8147 215.7313,-35.2687 206.1853,-39.8649 211.1351,-44.8147"/>
</g>
<!-- Core -->
<g id="node5" class="node">
<title>Core</title><style>.edge>path:hover{stroke-width:8}</style>
<ellipse fill="#71883a" stroke="#000000" cx="306" cy="-90" rx="27" ry="18"/>
<text text-anchor="middle" x="306" y="-87.5" font-family="Helvetica,sans-Serif" font-size="10.00" fill="#ffffff">Core</text>
</g>
<!-- Core - MeasureHeight -->
<g id="edge4" class="edge">
<title>Core&#45;&gt;MeasureHeight</title><style>.edge>path:hover{stroke-width:8}</style>
<path fill="none" stroke="#000000" d="M290.8744,-75.0816C281.3056,-65.6439 268.7109,-53.2217 257.7148,-42.3762"/>
<polygon fill="#71883a" stroke="#000000" points="259.9917,-39.706 250.4143,-35.1757 255.0762,-44.6898 259.9917,-39.706"/>
</g>
<!-- Histogram -->
<g id="node6" class="node">
<title>Histogram</title><style>.edge>path:hover{stroke-width:8}</style>
<ellipse fill="#53b662" stroke="#000000" cx="60" cy="-378" rx="37.1717" ry="18"/>
<text text-anchor="middle" x="60" y="-375.5" font-family="Helvetica,sans-Serif" font-size="10.00" fill="#000000">Histogram</text>
</g>
<!-- ProcessImage -->
<g id="node10" class="node">
<title>ProcessImage</title><style>.edge>path:hover{stroke-width:8}</style>
<ellipse fill="#603db8" stroke="#000000" cx="110" cy="-306" rx="52.2822" ry="18"/>
<text text-anchor="middle" x="110" y="-303.5" font-family="Helvetica,sans-Serif" font-size="10.00" fill="#ffffff">ProcessImage</text>
</g>
<!-- Histogram - ProcessImage -->
<g id="edge6" class="edge">
<title>Histogram&#45;&gt;ProcessImage</title><style>.edge>path:hover{stroke-width:8}</style>
<path fill="none" stroke="#000000" d="M71.8493,-360.937C77.819,-352.3407 85.1872,-341.7304 91.8515,-332.1338"/>
<polygon fill="#53b662" stroke="#000000" points="94.8844,-333.9025 97.7136,-323.6924 89.1348,-329.9097 94.8844,-333.9025"/>
</g>
<!-- Images -->
<g id="node7" class="node">
<title>Images</title><style>.edge>path:hover{stroke-width:8}</style>
<ellipse fill="#4cb387" stroke="#000000" cx="139" cy="-234" rx="29.3664" ry="18"/>
<text text-anchor="middle" x="139" y="-231.5" font-family="Helvetica,sans-Serif" font-size="10.00" fill="#000000">Images</text>
</g>
<!-- Images - Calculate -->
<g id="edge7" class="edge">
<title>Images&#45;&gt;Calculate</title><style>.edge>path:hover{stroke-width:8}</style>
<path fill="none" stroke="#000000" d="M126.0658,-217.6621C118.8088,-208.4953 109.6094,-196.8751 101.4954,-186.6257"/>
<polygon fill="#4cb387" stroke="#000000" points="104.2298,-184.4409 95.2786,-178.7729 98.7415,-188.7859 104.2298,-184.4409"/>
</g>
<!-- Log -->
<g id="node8" class="node">
<title>Log</title><style>.edge>path:hover{stroke-width:8}</style>
<ellipse fill="#53b6b6" stroke="#000000" cx="233" cy="-162" rx="27" ry="18"/>
<text text-anchor="middle" x="233" y="-159.5" font-family="Helvetica,sans-Serif" font-size="10.00" fill="#000000">Log</text>
</g>
<!-- Log - Core -->
<g id="edge8" class="edge">
<title>Log&#45;&gt;Core</title><style>.edge>path:hover{stroke-width:8}</style>
<path fill="none" stroke="#000000" d="M248.1256,-147.0816C258.3345,-137.0125 271.9878,-123.5463 283.4693,-112.2221"/>
<polygon fill="#53b6b6" stroke="#000000" points="285.9806,-114.6611 290.6426,-105.147 281.0651,-109.6773 285.9806,-114.6611"/>
</g>
<!-- Plot -->
<g id="node9" class="node">
<title>Plot</title><style>.edge>path:hover{stroke-width:8}</style>
<ellipse fill="#5362b6" stroke="#000000" cx="161" cy="-162" rx="27" ry="18"/>
<text text-anchor="middle" x="161" y="-159.5" font-family="Helvetica,sans-Serif" font-size="10.00" fill="#ffffff">Plot</text>
</g>
<!-- Plot - CalculateMultiple -->
<g id="edge9" class="edge">
<title>Plot&#45;&gt;CalculateMultiple</title><style>.edge>path:hover{stroke-width:8}</style>
<path fill="none" stroke="#000000" d="M161,-143.8314C161,-136.131 161,-126.9743 161,-118.4166"/>
<polygon fill="#5362b6" stroke="#000000" points="164.5001,-118.4132 161,-108.4133 157.5001,-118.4133 164.5001,-118.4132"/>
</g>
<!-- ProcessImage - Calculate -->
<g id="edge10" class="edge">
<title>ProcessImage&#45;&gt;Calculate</title><style>.edge>path:hover{stroke-width:8}</style>
<path fill="none" stroke="#000000" d="M106.4538,-287.7623C101.6569,-263.0928 93.0561,-218.8598 87.4392,-189.9731"/>
<polygon fill="#603db8" stroke="#000000" points="90.8619,-189.2377 85.5174,-180.0896 83.9905,-190.5738 90.8619,-189.2377"/>
</g>
<!-- ProcessImage - Images -->
<g id="edge11" class="edge">
<title>ProcessImage&#45;&gt;Images</title><style>.edge>path:hover{stroke-width:8}</style>
<path fill="none" stroke="#000000" d="M117.3179,-287.8314C120.5364,-279.8406 124.3865,-270.2819 127.9432,-261.4514"/>
<polygon fill="#603db8" stroke="#000000" points="131.2953,-262.4969 131.7849,-251.9134 124.8022,-259.8816 131.2953,-262.4969"/>
</g>
<!-- ReduceData -->
<g id="node11" class="node">
<title>ReduceData</title><style>.edge>path:hover{stroke-width:8}</style>
<ellipse fill="#9a53b6" stroke="#000000" cx="160" cy="-378" rx="44.978" ry="18"/>
<text text-anchor="middle" x="160" y="-375.5" font-family="Helvetica,sans-Serif" font-size="10.00" fill="#ffffff">ReduceData</text>
</g>
<!-- ReduceData - ProcessImage -->
<g id="edge12" class="edge">
<title>ReduceData&#45;&gt;ProcessImage</title><style>.edge>path:hover{stroke-width:8}</style>
<path fill="none" stroke="#000000" d="M147.8964,-360.5708C141.9219,-351.9675 134.5942,-341.4156 127.9799,-331.8911"/>
<polygon fill="#9a53b6" stroke="#000000" points="130.7442,-329.7356 122.1654,-323.5182 124.9946,-333.7284 130.7442,-329.7356"/>
</g>
<!-- Results -->
<g id="node12" class="node">
<title>Results</title><style>.edge>path:hover{stroke-width:8}</style>
<ellipse fill="#b653a8" stroke="#000000" cx="306" cy="-162" rx="27.8353" ry="18"/>
<text text-anchor="middle" x="306" y="-159.5" font-family="Helvetica,sans-Serif" font-size="10.00" fill="#ffffff">Results</text>
</g>
<!-- Results - Core -->
<g id="edge13" class="edge">
<title>Results&#45;&gt;Core</title><style>.edge>path:hover{stroke-width:8}</style>
<path fill="none" stroke="#000000" d="M306,-143.8314C306,-136.131 306,-126.9743 306,-118.4166"/>
<polygon fill="#b653a8" stroke="#000000" points="309.5001,-118.4132 306,-108.4133 302.5001,-118.4133 309.5001,-118.4132"/>
</g>
<!-- Settings -->
<g id="node13" class="node">
<title>Settings</title><style>.edge>path:hover{stroke-width:8}</style>
<ellipse fill="#b6537e" stroke="#000000" cx="383" cy="-162" rx="31.3996" ry="18"/>
<text text-anchor="middle" x="383" y="-159.5" font-family="Helvetica,sans-Serif" font-size="10.00" fill="#ffffff">Settings</text>
</g>
<!-- Settings - Core -->
<g id="edge14" class="edge">
<title>Settings&#45;&gt;Core</title><style>.edge>path:hover{stroke-width:8}</style>
<path fill="none" stroke="#000000" d="M366.2921,-146.3771C355.4797,-136.2667 341.2481,-122.9592 329.3269,-111.8122"/>
<polygon fill="#b6537e" stroke="#000000" points="331.5806,-109.1278 321.8859,-104.8543 326.7996,-114.2408 331.5806,-109.1278"/>
</g>
<!-- farmware_tools -->
<g id="node14" class="node">
<title>farmware_tools</title><style>.edge>path:hover{stroke-width:8}</style>
<polygon fill="#ddd" stroke="#000000" points="483.5,-252 480.5,-256 459.5,-256 456.5,-252 400.5,-252 400.5,-216 483.5,-216 483.5,-252"/>
<text text-anchor="middle" x="442" y="-231.5" font-family="Helvetica,sans-Serif" font-size="10.00" fill="#000000">farmware_tools</text>
</g>
<!-- farmware_tools - Core -->
<g id="edge5" class="edge">
<title>farmware_tools&#45;&gt;Core</title><style>.edge>path:hover{stroke-width:8}</style>
<path fill="none" stroke="#000000" d="M442.7323,-215.7774C442.5731,-196.0335 439.4291,-164.6005 423,-144 402.9278,-118.8315 368.4536,-104.8957 342.1102,-97.517"/>
<polygon fill="#ddd" stroke="#000000" points="342.661,-94.0439 332.102,-94.9143 340.8991,-100.8186 342.661,-94.0439"/>
</g>
</g>
</svg>
